<svg width="498" height="451" xmlns="http://www.w3.org/2000/svg">

 <g>
  <title>background</title>
  <rect fill="none" id="canvas_background" height="453" width="500" y="-1" x="-1"/>
 </g>
 <g>
  <title>Layer 1</title>
  <g transform="rotate(-87.57124328613281 249.15879821777344,219.49923706054685) " id="svg_6">
   <path id="svg_1" d="m163.99,273.456c15.605,-13.219 30.744,-27.047 46.93,-39.516c22.537,-17.359 47.25,-22.906 71.95,-5.137c51.416,36.996 85.016,86.469 93.596,149.613c5.969,43.926 -22.104,67.547 -63.518,52.91c-30.805,-10.891 -58.708,-9.73 -89.311,-1.66c-18.643,4.914 -40.049,5.426 -59.018,1.75c-40.332,-7.816 -55.23,-34.031 -40.951,-72.344c11.074,-29.715 12.72,-55.193 40.941,-86.262l-0.619,0.646z" clip-rule="evenodd" fill-rule="evenodd"/>
   <path id="svg_2" d="m383.867,88.851c-5.543,31.73 -10.791,61.137 -33.092,83.984c-21.926,22.465 -54.314,18.879 -71.799,-7.004c-27.084,-40.098 -9.848,-121.238 31.305,-147.359c20.932,-13.289 44.26,-9.527 55.379,12.699c11.604,17.78 19.769,43.132 18.207,57.68z" clip-rule="evenodd" fill-rule="evenodd"/>
   <path id="svg_3" d="m256.845,120.499c-1.311,7.414 -2.215,21.602 -6.463,34.703c-8.84,27.25 -30.057,35.684 -54.953,21.879c-9.557,-5.297 -19.105,-12.914 -25.145,-21.844c-25.863,-38.254 -32.732,-79.941 -14.312,-123.105c14.791,-34.664 46.715,-38.367 70.82,-9.281c21.803,26.308 29.133,57.711 30.053,97.648z" clip-rule="evenodd" fill-rule="evenodd"/>
   <path id="svg_4" d="m453.381,216.179c-1.09,34.016 -7.486,59.457 -26.539,80.25c-25.588,27.926 -69.35,19.508 -83.166,-15.836c-14.791,-37.832 2.5,-93.605 36.066,-116.34c25.363,-17.18 51.68,-10.367 64.121,18.023c5.494,12.539 7.539,26.586 9.518,33.903z" clip-rule="evenodd" fill-rule="evenodd"/>
   <path id="svg_5" d="m151.609,266.812c-20.764,16.266 -33.268,17.258 -56.338,4.473c-36.186,-20.059 -58.414,-73.301 -47.582,-113.969c10.178,-38.211 43.41,-48.133 73.074,-21.812c34.771,30.852 53.652,88.096 30.215,131.977c0.012,-0.025 0.631,-0.669 0.631,-0.669z" clip-rule="evenodd" fill-rule="evenodd"/>
  </g>
 </g>
</svg>